<svg xmlns="http://www.w3.org/2000/svg" version="1.0" width="457px" height="125px" viewBox="0 0 457 125" preserveAspectRatio="xMidYMid meet">
    <g fill="#ffffff">
        <path d="M321.17 120.12 c-3.73 -1.01 -6.70 -3.48 -8.48 -7.07 -1.31 -2.67 -1.73 -4.61 -1.73 -8.15 0 -4.81 1.29 -8.45 4.08 -11.40 1.70 -1.80 4.15 -3.20 6.45 -3.66 2 -0.44 5.85 -0.18 7.56 0.46 3.80 1.45 6.50 4.47 7.83 8.75 0.35 1.15 0.88 6.86 0.64 7.14 -0.12 0.14 -2.70 0.18 -13.59 0.21 l-8.82 0.02 0 0.64 c0 1.91 1.38 5.11 2.90 6.73 1.57 1.68 3.48 2.56 5.90 2.70 3.75 0.23 6.75 -1.24 8.71 -4.33 0.41 -0.62 0.83 -1.13 0.94 -1.13 0.12 0 0.92 0.32 1.82 0.71 l1.61 0.74 -0.76 1.38 c-0.92 1.73 -3.11 3.98 -4.77 4.93 -2.12 1.20 -4.10 1.68 -6.77 1.66 -1.27 0 -2.86 -0.16 -3.52 -0.32z m12.07 -17.76 c0.21 -0.55 -0.35 -2.70 -1.11 -4.19 -3.27 -6.56 -12.67 -6.31 -15.80 0.44 -0.76 1.61 -1.31 3.57 -1.11 3.92 0.09 0.12 3.66 0.21 9.01 0.21 7.88 0 8.87 -0.05 9.01 -0.37z"/>
        <path d="M352.22 120.10 c-4.75 -1.27 -8.22 -4.98 -9.63 -10.23 -0.64 -2.35 -0.58 -7.83 0.12 -10.25 0.78 -2.67 1.77 -4.38 3.62 -6.22 2.65 -2.67 5.39 -3.80 9.17 -3.80 3.71 0 6.61 1.15 9.03 3.57 1.41 1.41 3.09 4.17 2.74 4.49 -0.12 0.09 -0.81 0.35 -1.52 0.55 -0.74 0.21 -1.47 0.44 -1.64 0.51 -0.21 0.07 -0.60 -0.30 -1.06 -1.04 -0.97 -1.47 -2.53 -2.93 -3.89 -3.55 -0.90 -0.41 -1.50 -0.51 -3.62 -0.51 -2.30 0 -2.65 0.07 -3.82 0.64 -1.45 0.71 -3.36 2.58 -4.12 4.05 -0.85 1.70 -1.38 4.26 -1.38 6.80 0 5.14 1.89 8.80 5.51 10.57 1.38 0.67 1.68 0.74 3.71 0.74 1.73 -0.02 2.46 -0.12 3.48 -0.53 1.61 -0.64 3.13 -1.96 4.15 -3.55 0.41 -0.67 0.78 -1.24 0.81 -1.29 0.02 -0.05 0.85 0.25 1.82 0.64 1.96 0.83 1.93 0.71 0.74 2.76 -1.54 2.65 -4.45 4.81 -7.53 5.64 -1.61 0.44 -5.04 0.41 -6.66 -0.02z"/>
        <path d="M400.54 120.15 c-2.79 -0.78 -5.21 -2.49 -6.61 -4.68 -0.39 -0.62 -0.99 -1.93 -1.36 -2.95 l-0.64 -1.84 -0.07 -10.18 -0.07 -10.20 1.93 0 1.96 0 0.12 9.51 c0.09 10.04 0.14 10.55 1.29 12.76 0.76 1.50 1.77 2.53 3.20 3.22 1.15 0.58 1.57 0.64 3.50 0.64 1.73 0 2.42 -0.12 3.27 -0.51 1.31 -0.60 3.02 -2.14 3.75 -3.41 1.36 -2.30 1.36 -2.23 1.50 -12.55 l0.12 -9.56 1.96 0 1.96 0 0 14.63 0 14.63 -1.89 0.07 -1.91 0.07 0 -1.59 c0 -0.88 -0.07 -1.64 -0.14 -1.70 -0.07 -0.09 -0.48 0.25 -0.94 0.74 -1.93 2.14 -4.61 3.25 -7.88 3.20 -1.08 0 -2.46 -0.14 -3.04 -0.30z"/>
        <path d="M445.02 119.87 c-1.75 -0.48 -3.27 -1.52 -4.22 -2.93 -1.50 -2.19 -1.54 -2.60 -1.54 -13.34 l0 -9.63 -2.86 0 c-2.07 0 -2.88 -0.07 -2.95 -0.28 -0.07 -0.16 -0.07 -0.99 0 -1.84 l0.09 -1.57 2.86 0 2.86 0 0 -4.03 0 -4.03 1.96 0 1.96 0 0 4.03 0 4.03 4.33 0.05 4.31 0.07 0.07 1.80 0.07 1.77 -4.40 0 -4.40 0 0.07 9.51 c0.07 10.69 0.05 10.55 1.87 12 0.88 0.71 0.92 0.71 3.80 0.74 l2.93 0.02 0.07 1.84 0.07 1.84 -1.43 0.16 c-2.19 0.21 -4.12 0.14 -5.51 -0.23z"/>
        <path d="M279.18 100.18 l0 -19.58 8.94 0.07 c8.52 0.09 8.98 0.12 10.27 0.60 2 0.74 3.11 1.45 4.45 2.86 1.29 1.38 2.28 3.13 2.74 4.91 0.44 1.57 0.41 5.67 -0.02 7.37 -0.76 2.90 -2.67 5.46 -5.11 6.84 -0.67 0.37 -1.22 0.76 -1.22 0.83 0 0.09 1.70 3.55 3.80 7.67 2.10 4.15 3.80 7.65 3.80 7.79 0 0.18 -0.67 0.25 -2.23 0.21 l-2.26 -0.07 -3.69 -7.37 -3.69 -7.37 -5.87 0 -5.87 0 -0.07 7.44 -0.05 7.42 -1.96 0 -1.96 0 0 -19.60z m18.43 0.05 c0.58 -0.30 1.52 -1.06 2.14 -1.68 1.52 -1.61 2.10 -3.52 1.96 -6.47 -0.16 -3.27 -1.31 -5.32 -3.73 -6.54 -1.41 -0.71 -4.31 -0.97 -10.62 -0.92 l-4.15 0.05 -0.07 7.83 c-0.02 4.31 0 7.97 0.07 8.13 0.09 0.25 1.43 0.30 6.73 0.23 6.45 -0.07 6.66 -0.09 7.67 -0.62z"/>
        <path d="M372.92 105.04 l0 -14.76 1.91 0.07 1.89 0.07 0.12 2.05 0.12 2.07 0.67 -0.97 c1.29 -1.87 3.22 -2.93 6.06 -3.27 0.97 -0.14 2.12 -0.16 2.53 -0.09 l0.76 0.14 0 1.80 0 1.77 -2.03 0.12 c-3.18 0.18 -5.30 1.52 -6.66 4.17 -1.22 2.44 -1.27 2.86 -1.43 12.48 l-0.14 8.98 -1.89 0.07 -1.91 0.07 0 -14.76z"/>
        <path d="M424.29 105.04 l0 -14.74 1.96 0 1.96 0 -0.05 14.70 -0.07 14.67 -1.89 0.07 -1.91 0.07 0 -14.76z"/>
        <path d="M424.29 82.69 l0 -2.07 1.96 0 1.96 0 0 2.07 0 2.07 -1.96 0 -1.96 0 0 -2.07z"/>
        <path d="M219.63 65.62 c-6.89 -0.71 -13.20 -5.04 -16.45 -11.26 -3.78 -7.28 -3.29 -16.56 1.24 -23.40 2.05 -3.09 4.77 -5.37 8.29 -7.03 2.67 -1.27 5.04 -1.82 8.22 -1.98 7.16 -0.37 13.29 2.30 17.58 7.65 1.54 1.91 3.36 5.53 4.03 7.95 1.17 4.40 1.01 9.65 -0.41 13.82 -2.46 7.14 -8.22 12.37 -15.25 13.91 -2 0.44 -5 0.58 -7.26 0.35z m4.86 -6.91 c0.74 -0.12 2.30 -0.69 3.43 -1.24 3.27 -1.57 5.69 -4.31 6.93 -7.90 1.57 -4.56 1.04 -10.53 -1.34 -14.51 -1.66 -2.76 -4.54 -5.02 -7.67 -5.94 -1.89 -0.58 -5.71 -0.58 -7.60 0 -5.14 1.54 -8.64 5.55 -9.84 11.36 -0.78 3.80 -0.32 7.23 1.45 10.87 2.67 5.46 8.61 8.45 14.63 7.37z"/>
        <path d="M21.31 65.37 c-0.23 -0.64 -6.68 -19.16 -7.60 -21.84 -0.53 -1.59 -2.81 -8.06 -5.07 -14.40 -7.39 -20.92 -8.43 -24.02 -7.99 -24.14 0.21 -0.05 4.33 -0.07 9.12 -0.07 l8.73 0.02 1.11 3.34 c0.94 2.90 4.65 14.51 8.50 26.67 0.64 2.05 1.24 3.73 1.34 3.73 0.09 0 1.34 -3.46 2.79 -7.65 5.27 -15.48 8.85 -25.64 9.08 -25.94 0.16 -0.21 1.66 -0.28 6.56 -0.23 l6.33 0.07 0.41 1.27 c0.23 0.69 1.52 4.79 2.86 9.10 1.36 4.31 2.95 9.40 3.57 11.29 0.60 1.91 1.70 5.39 2.44 7.79 0.71 2.37 1.38 4.31 1.47 4.31 0.07 0 0.41 -0.81 0.74 -1.77 0.35 -0.99 1.82 -5.32 3.29 -9.63 1.50 -4.31 2.90 -8.45 3.13 -9.21 0.25 -0.74 0.48 -1.41 0.53 -1.43 0.09 -0.12 13.59 9.84 13.68 10.07 0.05 0.09 -0.78 2.56 -1.82 5.44 -1.04 2.90 -2.37 6.73 -2.97 8.50 -0.62 1.77 -2.37 6.80 -3.92 11.17 -1.54 4.38 -3.22 9.14 -3.73 10.60 -0.51 1.45 -1.01 2.79 -1.15 2.95 -0.18 0.21 -1.84 0.28 -7.39 0.23 l-7.14 -0.07 -5.37 -16.10 c-2.95 -8.85 -5.41 -16.12 -5.46 -16.19 -0.05 -0.05 -0.69 1.66 -1.43 3.78 -0.71 2.12 -2.76 7.97 -4.54 12.97 -1.77 5 -3.69 10.46 -4.26 12.09 -0.58 1.66 -1.15 3.13 -1.27 3.29 -0.18 0.21 -1.93 0.28 -7.37 0.28 -5.48 0 -7.14 -0.07 -7.21 -0.28z"/>
        <path d="M367.35 65.49 l-1.80 -0.09 0 -20.94 0 -20.96 5.53 0 5.53 0 0 20.96 0 20.96 -0.99 0 c-0.55 0 -2.23 0.05 -3.75 0.09 -1.50 0.05 -3.55 0.05 -4.51 -0.02z"/>
        <path d="M435.35 65.51 c-3.13 -0.37 -4.72 -0.67 -6.33 -1.17 -11.22 -3.55 -16.82 -14.51 -13.68 -26.90 0.58 -2.28 2.14 -5.48 3.66 -7.53 1.36 -1.80 4.05 -4.05 6.08 -5.07 3.43 -1.73 6.59 -2.40 10.69 -2.19 8.11 0.37 13.91 4.75 16.54 12.44 0.81 2.37 1.20 4.84 1.38 8.98 0.14 3.02 0.12 3.71 -0.16 3.87 -0.18 0.12 -6.40 0.21 -13.87 0.21 l-13.52 0 0.14 0.64 c0.48 2 2.17 4.19 3.96 5.18 2.28 1.24 3.25 1.36 11.17 1.47 l7.30 0.12 0 4.79 c0 2.72 -0.09 4.86 -0.21 4.95 -0.28 0.16 -12.02 0.35 -13.15 0.21z m7.05 -25.52 c0.18 -0.48 -0.25 -2.44 -0.83 -3.69 -0.74 -1.54 -1.96 -2.81 -3.39 -3.50 -1.08 -0.55 -1.59 -0.64 -3.27 -0.64 -4.24 -0.05 -6.93 1.91 -8.29 6.01 -0.28 0.78 -0.48 1.54 -0.48 1.66 0 0.30 1.20 0.35 9.37 0.44 5.92 0.07 6.77 0.05 6.89 -0.28z"/>
        <path d="M310.57 65.26 l-0.99 -0.09 0 -3.62 c0 -4.01 -0.30 -5.71 -1.31 -7.83 -0.78 -1.61 -2.81 -3.71 -4.35 -4.49 -2.23 -1.13 -3.22 -1.27 -10.39 -1.43 l-6.75 -0.14 0 8.75 0 8.78 -3.80 0 -3.80 0 0 -29.94 0 -29.94 3.75 0.05 3.73 0.07 0.07 17.81 0.05 17.78 5.51 0 5.51 0 5.25 -8.75 5.23 -8.75 4.01 0 c3.64 0 4.03 0.05 3.89 0.37 -0.14 0.35 -3.80 6.43 -8.94 14.81 l-2.03 3.34 2.33 1.11 c1.98 0.97 2.63 1.43 4.22 3.02 1.93 1.96 3.02 3.57 3.96 5.87 1.11 2.76 1.29 3.89 1.41 8.59 l0.12 4.51 -0.74 0.16 c-0.76 0.14 -4.15 0.14 -5.92 -0.02z"/>
        <path d="M341.14 65.07 c-3.73 -0.76 -6.43 -2.19 -9.03 -4.77 -2.05 -2.05 -3.32 -4.38 -4.17 -7.56 l-0.51 -1.96 0 -21.31 0 -21.31 5.69 -0.07 5.69 -0.05 0.07 21.49 0.07 21.49 0.60 1.13 c0.41 0.81 0.90 1.36 1.70 1.84 l1.11 0.69 8.09 0.07 c5.92 0.05 8.13 0.14 8.25 0.35 0.09 0.16 0.18 2.53 0.18 5.30 l0 5 -8.11 -0.02 c-5.74 -0.02 -8.57 -0.12 -9.63 -0.32z"/>
        <path d="M389.49 54.55 c0 -5.99 -0.05 -13.22 -0.07 -16.08 l-0.07 -5.18 -3.50 -0.07 -3.48 -0.07 -0.05 -2.58 c-0.02 -1.41 -0.02 -3.57 -0.02 -4.77 l0.02 -2.19 3.32 -0.12 c1.80 -0.07 3.43 -0.21 3.59 -0.30 0.21 -0.14 0.28 -1.24 0.28 -4.15 0 -5.74 0.58 -7.65 3.04 -10.20 2.86 -2.99 5 -3.52 13.96 -3.55 l6.03 0 0 4.81 0 4.84 -5.32 0.07 -5.32 0.07 -0.67 0.76 -0.69 0.76 0.07 3.39 0.07 3.39 4.95 0 4.95 0 0.07 4.91 0.05 4.88 -5.04 0 -5.04 0 -0.14 0.76 c-0.07 0.39 -0.09 7.65 -0.02 16.12 l0.09 15.36 -5.53 0 -5.51 0 -0.02 -10.87z"/>
        <path d="M250.71 64.43 c-0.07 -0.18 -0.07 -7.51 -0.05 -16.31 0.07 -14.72 0.12 -16.08 0.51 -17.25 1.04 -3.13 2.97 -5.55 5.48 -6.82 2.33 -1.17 4.19 -1.47 9.33 -1.47 l4.68 0 0 3.43 0 3.43 -4.31 0.09 c-3.98 0.07 -4.42 0.12 -5.44 0.62 -0.60 0.28 -1.36 0.88 -1.68 1.31 -1.24 1.61 -1.24 1.70 -1.24 18.10 l0 15.16 -3.57 0 c-2.79 0 -3.62 -0.07 -3.71 -0.30z"/>
        <path d="M135.63 60.53 c-0.71 -2.19 -3.25 -9.67 -5.60 -16.65 -2.37 -6.96 -6.24 -18.43 -8.64 -25.45 -2.40 -7.03 -4.40 -12.97 -4.49 -13.20 -0.16 -0.37 0.07 -0.39 3.46 -0.35 l3.64 0.07 4.98 14.97 c2.74 8.25 6.38 19.26 8.09 24.46 1.70 5.23 3.18 9.42 3.27 9.33 0.09 -0.09 1.82 -5 3.85 -10.87 2 -5.90 4.03 -11.79 4.51 -13.13 0.46 -1.34 2.53 -7.37 4.63 -13.43 2.07 -6.06 3.82 -11.13 3.89 -11.24 0.09 -0.12 1.36 -0.21 2.83 -0.21 l2.70 0 7.99 24.02 c4.40 13.20 8.06 24.26 8.15 24.55 0.07 0.28 0.23 0.44 0.32 0.35 0.09 -0.12 1.75 -4.81 3.64 -10.46 5.67 -16.77 12.92 -38.03 13.08 -38.26 0.07 -0.12 1.66 -0.21 3.55 -0.21 l3.43 0 -1.15 3.27 c-0.64 1.82 -1.98 5.69 -2.97 8.59 -0.99 2.93 -3.64 10.53 -5.87 16.93 -2.26 6.40 -4.58 13.08 -5.18 14.86 -1.80 5.25 -5.23 15.18 -5.41 15.62 -0.16 0.37 -0.48 0.39 -3.18 0.35 l-2.99 -0.07 -8.13 -24.30 c-4.45 -13.36 -8.15 -24.14 -8.22 -23.96 -0.07 0.18 -0.44 1.29 -0.81 2.42 -0.39 1.15 -2 5.85 -3.62 10.48 -1.59 4.63 -3.98 11.52 -5.30 15.32 -2.37 6.89 -6.01 17.32 -6.70 19.19 l-0.37 0.97 -3.04 0 -3.04 0 -1.29 -3.96z"/>
        <path d="M85 21.05 c-8.57 -6.33 -11.06 -8.25 -11.01 -8.38 0.05 -0.07 0.69 -1.93 1.43 -4.10 1.24 -3.62 1.43 -3.98 1.96 -4.10 1.22 -0.25 8.13 -2.03 12.55 -3.22 2.51 -0.69 4.91 -1.24 5.34 -1.24 l0.76 0 -0.37 0.85 c-0.21 0.48 -1.43 3.94 -2.72 7.67 -3.92 11.24 -4.98 14.17 -5.14 14.33 -0.09 0.09 -1.36 -0.71 -2.81 -1.80z"/>
        <path d="M368.55 18.27 c-2.44 -0.88 -4.38 -3.89 -4.38 -6.82 0.05 -4.08 2.99 -6.96 7.09 -6.89 5.64 0.07 8.68 6.84 5.16 11.45 -1.27 1.68 -3.25 2.65 -5.30 2.63 -0.85 0 -2 -0.18 -2.58 -0.37z"/>
    </g>
</svg>