<svg
        xmlns="http://www.w3.org/2000/svg"
        width="474"
        zoomAndPan="magnify"
        viewBox="0 0 355.5 111.749996"
        height="149"
        preserveAspectRatio="xMidYMid meet"
        version="1.0"
        >
<defs>
<g/>
<clipPath id="a111d47b52"><path d="M 150 16 L 183 16 L 183 47.894531 L 150 47.894531 Z M 150 16 " clipRule="nonzero"/></clipPath>
<clipPath id="e90a5a17ac"><path d="M 187 16 L 203 16 L 203 47.894531 L 187 47.894531 Z M 187 16 " clipRule="nonzero"/></clipPath>
<clipPath id="bea10a085e"><path d="M 209 4 L 238 4 L 238 47.894531 L 209 47.894531 Z M 209 4 " clipRule="nonzero"/></clipPath>
<clipPath id="b8b2830843"><path d="M 310 16 L 339.886719 16 L 339.886719 47.894531 L 310 47.894531 Z M 310 16 " clipRule="nonzero"/></clipPath>
<clipPath id="947dce8800"><path d="M 286 4 L 309 4 L 309 47.894531 L 286 47.894531 Z M 286 4 " clipRule="nonzero"/></clipPath>
<clipPath id="0c8211efe1"><path d="M 272 3 L 283 3 L 283 47.894531 L 272 47.894531 Z M 272 3 " clipRule="nonzero"/></clipPath>
<clipPath id="43baa3c79b"><path d="M 245 5 L 269 5 L 269 47.894531 L 245 47.894531 Z M 245 5 " clipRule="nonzero"/></clipPath>
<clipPath id="3c4d9d2441"><path d="M 0.148438 3 L 65 3 L 65 47.894531 L 0.148438 47.894531 Z M 0.148438 3 " clipRule="nonzero"/></clipPath>
</defs>
<g clip-path="url(#a111d47b52)"><path fill="#3399ff" d="M 166.242188 47.800781 C 163.148438 47.800781 160.410156 47.105469 158.03125 45.71875 C 155.652344 44.289062 153.765625 42.382812 152.378906 40.003906 C 150.988281 37.585938 150.296875 34.886719 150.296875 31.910156 C 150.296875 28.9375 150.988281 26.257812 152.378906 23.878906 C 153.765625 21.457031 155.652344 19.554688 158.03125 18.167969 C 160.410156 16.738281 163.148438 16.023438 166.242188 16.023438 C 169.335938 16.023438 172.074219 16.738281 174.453125 18.167969 C 176.875 19.554688 178.757812 21.4375 180.109375 23.820312 C 181.496094 26.199219 182.191406 28.898438 182.191406 31.910156 C 182.191406 34.886719 181.496094 37.585938 180.109375 40.003906 C 178.757812 42.382812 176.875 44.289062 174.453125 45.71875 C 172.074219 47.105469 169.335938 47.800781 166.242188 47.800781 Z M 166.242188 43.097656 C 168.34375 43.097656 170.171875 42.601562 171.71875 41.609375 C 173.265625 40.621094 174.472656 39.289062 175.347656 37.625 C 176.21875 35.917969 176.65625 34.015625 176.65625 31.910156 C 176.65625 29.808594 176.21875 27.925781 175.347656 26.257812 C 174.472656 24.554688 173.265625 23.203125 171.71875 22.210938 C 170.171875 21.222656 168.34375 20.726562 166.242188 20.726562 C 164.179688 20.726562 162.355469 21.222656 160.769531 22.210938 C 159.222656 23.203125 158.011719 24.554688 157.136719 26.257812 C 156.265625 27.925781 155.828125 29.808594 155.828125 31.910156 C 155.828125 34.015625 156.265625 35.917969 157.136719 37.625 C 158.011719 39.289062 159.222656 40.621094 160.769531 41.609375 C 162.355469 42.601562 164.179688 43.097656 166.242188 43.097656 Z M 166.242188 43.097656 " fillOpacity="1" fillRule="nonzero"/></g><g clip-path="url(#e90a5a17ac)"><path fill="#3399ff" d="M 187.796875 47.085938 L 187.796875 25.367188 C 187.796875 22.667969 188.546875 20.566406 190.054688 19.058594 C 191.601562 17.511719 193.726562 16.738281 196.421875 16.738281 L 202.671875 16.738281 L 202.671875 21.4375 L 197.433594 21.4375 C 196.125 21.4375 195.09375 21.816406 194.339844 22.570312 C 193.625 23.324219 193.269531 24.375 193.269531 25.722656 L 193.269531 47.085938 Z M 187.796875 47.085938 " fillOpacity="1" fillRule="nonzero"/></g>
<g clip-path="url(#bea10a085e)"><path fill="#3399ff" d="M 209.066406 47.601562 L 209.066406 4.160156 L 214.539062 4.160156 L 214.539062 29.988281 L 222.871094 29.988281 L 230.84375 17.253906 L 236.914062 17.253906 L 228.285156 30.820312 C 231.140625 31.652344 233.363281 33.21875 234.949219 35.519531 C 236.578125 37.78125 237.390625 40.417969 237.390625 43.433594 L 237.390625 47.601562 L 231.855469 47.601562 L 231.855469 43.433594 C 231.855469 41.769531 231.480469 40.28125 230.726562 38.972656 C 230.011719 37.664062 229 36.632812 227.691406 35.878906 C 226.382812 35.085938 224.875 34.6875 223.167969 34.6875 L 214.539062 34.6875 L 214.539062 47.601562 Z M 209.066406 47.601562 " fillOpacity="1" fillRule="nonzero"/></g><path fill="#3399ff" d="M 102.617188 46.949219 L 87.464844 3.519531 L 92.820312 3.519531 L 106.066406 42.636719 L 103.910156 42.636719 L 117.832031 3.519531 L 121.898438 3.519531 L 135.078125 42.636719 L 133.109375 42.636719 L 146.722656 3.519531 L 151.773438 3.519531 L 136.496094 46.949219 L 131.9375 46.949219 L 119.125 9.3125 L 120.417969 9.3125 L 107.050781 46.949219 Z M 102.617188 46.949219 " fillOpacity="1" fillRule="nonzero"/><g clip-path="url(#b8b2830843)"><path fill="#33cc66" d="M 327.34375 47.601562 C 323.890625 47.601562 320.878906 46.945312 318.300781 45.636719 C 315.761719 44.289062 313.777344 42.460938 312.347656 40.160156 C 310.960938 37.859375 310.265625 35.28125 310.265625 32.425781 C 310.265625 29.214844 310.921875 26.417969 312.230469 24.035156 C 313.539062 21.65625 315.324219 19.8125 317.585938 18.503906 C 319.847656 17.191406 322.402344 16.539062 325.261719 16.539062 C 328.671875 16.539062 331.429688 17.253906 333.53125 18.679688 C 335.675781 20.109375 337.242188 22.03125 338.234375 24.453125 C 339.226562 26.832031 339.722656 29.492188 339.722656 32.425781 C 339.722656 32.824219 339.703125 33.300781 339.660156 33.855469 C 339.621094 34.371094 339.5625 34.765625 339.484375 35.042969 L 318.953125 35.042969 C 319.269531 36.273438 319.808594 37.304688 320.558594 38.140625 C 321.351562 38.972656 322.328125 39.605469 323.476562 40.042969 C 324.664062 40.441406 325.996094 40.636719 327.460938 40.636719 L 335.914062 40.636719 L 335.914062 47.601562 Z M 318.894531 29.570312 L 331.570312 29.570312 C 331.488281 28.816406 331.351562 28.121094 331.152344 27.488281 C 330.953125 26.8125 330.675781 26.21875 330.320312 25.703125 C 329.960938 25.1875 329.546875 24.75 329.070312 24.394531 C 328.59375 24.035156 328.039062 23.757812 327.402344 23.558594 C 326.769531 23.363281 326.074219 23.261719 325.320312 23.261719 C 324.328125 23.261719 323.433594 23.441406 322.644531 23.796875 C 321.890625 24.15625 321.253906 24.632812 320.738281 25.226562 C 320.222656 25.820312 319.808594 26.496094 319.488281 27.25 C 319.210938 28.003906 319.011719 28.777344 318.894531 29.570312 Z M 318.894531 29.570312 " fillOpacity="1" fillRule="nonzero"/></g><g clip-path="url(#947dce8800)"><path fill="#33cc66" d="M 291.527344 47.601562 L 291.527344 24.214844 L 286.230469 24.214844 L 286.230469 17.253906 L 291.527344 17.253906 L 291.527344 12.789062 C 291.527344 10.09375 292.28125 7.988281 293.789062 6.480469 C 295.335938 4.933594 297.457031 4.160156 300.15625 4.160156 L 308.78125 4.160156 L 308.78125 11.125 L 301.585938 11.125 C 301.066406 11.125 300.609375 11.300781 300.214844 11.660156 C 299.859375 12.015625 299.679688 12.472656 299.679688 13.027344 L 299.679688 17.253906 L 307.476562 17.253906 L 307.476562 24.214844 L 299.679688 24.214844 L 299.679688 47.601562 Z M 291.527344 47.601562 " fillOpacity="1" fillRule="nonzero"/></g><g clip-path="url(#0c8211efe1)"><path fill="#33cc66" d="M 273.640625 47.601562 L 273.640625 17.253906 L 281.851562 17.253906 L 281.851562 47.601562 Z M 277.746094 13.621094 C 276.355469 13.621094 275.148438 13.125 274.117188 12.136719 C 273.125 11.105469 272.628906 9.894531 272.628906 8.503906 C 272.628906 7.117188 273.125 5.925781 274.117188 4.933594 C 275.148438 3.902344 276.355469 3.386719 277.746094 3.386719 C 279.132812 3.386719 280.324219 3.902344 281.316406 4.933594 C 282.347656 5.925781 282.863281 7.117188 282.863281 8.503906 C 282.863281 9.894531 282.347656 11.105469 281.316406 12.136719 C 280.324219 13.125 279.132812 13.621094 277.746094 13.621094 Z M 277.746094 13.621094 " fillOpacity="1" fillRule="nonzero"/></g>
<g clip-path="url(#43baa3c79b)"><path fill="#33cc66" d="M 257.589844 47.601562 C 255.132812 47.601562 252.96875 47.042969 251.105469 45.933594 C 249.242188 44.785156 247.792969 43.277344 246.761719 41.410156 C 245.730469 39.507812 245.214844 37.425781 245.214844 35.164062 L 245.214844 5.945312 L 253.722656 5.945312 L 253.722656 36.175781 C 253.722656 37.246094 254.101562 38.179688 254.855469 38.972656 C 255.609375 39.726562 256.519531 40.101562 257.589844 40.101562 L 268.601562 40.101562 L 268.601562 47.601562 Z M 257.589844 47.601562 " fillOpacity="1" fillRule="nonzero"/></g>
<path fill="#33cc66" d="M 65.871094 16.945312 L 71.738281 0 L 57.550781 3.441406 L 57.476562 3.460938 L 56.277344 6.925781 L 55.417969 9.402344 Z M 65.871094 16.945312 " fillOpacity="1" fillRule="evenodd"/>
<g clip-path="url(#3c4d9d2441)"><path fill="#3399ff" d="M 54.484375 12.058594 L 64.734375 19.457031 L 54.472656 47.828125 L 43.75 47.828125 L 35.433594 24.03125 L 26.886719 47.828125 L 16.101562 47.828125 L 0.175781 3.625 L 14.097656 3.625 L 22.003906 28.621094 L 31.023438 3.625 L 40.617188 3.625 L 48.671875 28.75 Z M 54.484375 12.058594 " fillOpacity="1" fillRule="evenodd"/></g>
<g fill="#3399ff" fillOpacity="1"><g transform="translate(206.288879, 87.31557)">
    <g><path d="M 2.765625 0 L 2.765625 -28.375 L 13.71875 -28.375 C 13.988281 -28.375 14.296875 -28.363281 14.640625 -28.34375 C 14.992188 -28.320312 15.347656 -28.28125 15.703125 -28.21875 C 17.191406 -27.988281 18.445312 -27.46875 19.46875 -26.65625 C 20.5 -25.851562 21.28125 -24.84375 21.8125 -23.625 C 22.351562 -22.40625 22.625 -21.050781 22.625 -19.5625 C 22.625 -17.425781 22.054688 -15.566406 20.921875 -13.984375 C 19.796875 -12.410156 18.179688 -11.421875 16.078125 -11.015625 L 15.078125 -10.78125 L 5.65625 -10.78125 L 5.65625 0 Z M 19.9375 0 L 14.34375 -11.546875 L 17.125 -12.609375 L 23.265625 0 Z M 5.65625 -13.53125 L 13.640625 -13.53125 C 13.867188 -13.53125 14.140625 -13.539062 14.453125 -13.5625 C 14.773438 -13.59375 15.085938 -13.644531 15.390625 -13.71875 C 16.359375 -13.925781 17.15625 -14.320312 17.78125 -14.90625 C 18.40625 -15.5 18.867188 -16.203125 19.171875 -17.015625 C 19.484375 -17.835938 19.640625 -18.6875 19.640625 -19.5625 C 19.640625 -20.445312 19.484375 -21.296875 19.171875 -22.109375 C 18.867188 -22.929688 18.40625 -23.640625 17.78125 -24.234375 C 17.15625 -24.828125 16.359375 -25.226562 15.390625 -25.4375 C 15.085938 -25.5 14.773438 -25.539062 14.453125 -25.5625 C 14.140625 -25.582031 13.867188 -25.59375 13.640625 -25.59375 L 5.65625 -25.59375 Z M 5.65625 -13.53125 "/></g></g>
</g>
<g fill="#3399ff" fillOpacity="1"><g transform="translate(231.330148, 87.31557)">
    <g><path d="M 11.765625 0.59375 C 9.691406 0.59375 7.894531 0.132812 6.375 -0.78125 C 4.851562 -1.707031 3.671875 -3.003906 2.828125 -4.671875 C 1.992188 -6.335938 1.578125 -8.296875 1.578125 -10.546875 C 1.578125 -12.867188 1.988281 -14.875 2.8125 -16.5625 C 3.644531 -18.257812 4.8125 -19.566406 6.3125 -20.484375 C 7.820312 -21.410156 9.597656 -21.875 11.640625 -21.875 C 13.742188 -21.875 15.535156 -21.390625 17.015625 -20.421875 C 18.503906 -19.453125 19.628906 -18.066406 20.390625 -16.265625 C 21.148438 -14.472656 21.5 -12.328125 21.4375 -9.828125 L 18.484375 -9.828125 L 18.484375 -10.859375 C 18.429688 -13.617188 17.835938 -15.695312 16.703125 -17.09375 C 15.566406 -18.5 13.90625 -19.203125 11.71875 -19.203125 C 9.4375 -19.203125 7.6875 -18.457031 6.46875 -16.96875 C 5.257812 -15.488281 4.65625 -13.378906 4.65625 -10.640625 C 4.65625 -7.960938 5.257812 -5.882812 6.46875 -4.40625 C 7.6875 -2.925781 9.410156 -2.1875 11.640625 -2.1875 C 13.171875 -2.1875 14.503906 -2.535156 15.640625 -3.234375 C 16.773438 -3.941406 17.671875 -4.957031 18.328125 -6.28125 L 21.015625 -5.234375 C 20.179688 -3.390625 18.945312 -1.957031 17.3125 -0.9375 C 15.675781 0.0820312 13.828125 0.59375 11.765625 0.59375 Z M 3.625 -9.828125 L 3.625 -12.25 L 19.875 -12.25 L 19.875 -9.828125 Z M 3.625 -9.828125 "/></g></g></g>
<g fill="#3399ff" fillOpacity="1"><g transform="translate(254.558825, 87.31557)"><g><path d="M 11.578125 0.59375 C 9.441406 0.59375 7.628906 0.113281 6.140625 -0.84375 C 4.660156 -1.800781 3.535156 -3.125 2.765625 -4.8125 C 1.992188 -6.5 1.597656 -8.441406 1.578125 -10.640625 C 1.597656 -12.867188 2.003906 -14.828125 2.796875 -16.515625 C 3.585938 -18.203125 4.722656 -19.515625 6.203125 -20.453125 C 7.691406 -21.398438 9.492188 -21.875 11.609375 -21.875 C 13.765625 -21.875 15.640625 -21.347656 17.234375 -20.296875 C 18.828125 -19.242188 19.921875 -17.804688 20.515625 -15.984375 L 17.671875 -15.078125 C 17.171875 -16.347656 16.378906 -17.332031 15.296875 -18.03125 C 14.210938 -18.738281 12.972656 -19.09375 11.578125 -19.09375 C 10.015625 -19.09375 8.722656 -18.734375 7.703125 -18.015625 C 6.679688 -17.296875 5.921875 -16.300781 5.421875 -15.03125 C 4.921875 -13.757812 4.664062 -12.296875 4.65625 -10.640625 C 4.675781 -8.085938 5.265625 -6.039062 6.421875 -4.5 C 7.578125 -2.957031 9.296875 -2.1875 11.578125 -2.1875 C 13.023438 -2.1875 14.257812 -2.515625 15.28125 -3.171875 C 16.300781 -3.835938 17.070312 -4.8125 17.59375 -6.09375 L 20.515625 -5.21875 C 19.722656 -3.332031 18.5625 -1.890625 17.03125 -0.890625 C 15.507812 0.0976562 13.691406 0.59375 11.578125 0.59375 Z M 11.578125 0.59375 "/></g></g></g><g fill="#3399ff" fillOpacity="1"><g transform="translate(276.565983, 87.31557)">
    <g><path d="M 2.765625 0 L 2.765625 -21.28125 L 5.359375 -21.28125 L 5.359375 -16.15625 L 4.84375 -16.828125 C 5.082031 -17.453125 5.390625 -18.03125 5.765625 -18.5625 C 6.148438 -19.101562 6.566406 -19.539062 7.015625 -19.875 C 7.566406 -20.363281 8.207031 -20.734375 8.9375 -20.984375 C 9.675781 -21.242188 10.421875 -21.394531 11.171875 -21.4375 C 11.921875 -21.488281 12.601562 -21.4375 13.21875 -21.28125 L 13.21875 -18.5625 C 12.445312 -18.757812 11.597656 -18.804688 10.671875 -18.703125 C 9.753906 -18.597656 8.910156 -18.226562 8.140625 -17.59375 C 7.429688 -17.039062 6.898438 -16.378906 6.546875 -15.609375 C 6.191406 -14.847656 5.953125 -14.035156 5.828125 -13.171875 C 5.710938 -12.304688 5.65625 -11.457031 5.65625 -10.625 L 5.65625 0 Z M 2.765625 0 "/></g></g>
</g>
<g fill="#3399ff" fillOpacity="1">
<g transform="translate(290.968172, 87.31557)">
    <g><path d="M 10.890625 0.53125 C 9.617188 0.53125 8.503906 0.332031 7.546875 -0.0625 C 6.597656 -0.457031 5.789062 -0.988281 5.125 -1.65625 C 4.46875 -2.320312 3.9375 -3.082031 3.53125 -3.9375 C 3.125 -4.800781 2.828125 -5.71875 2.640625 -6.6875 C 2.453125 -7.65625 2.359375 -8.617188 2.359375 -9.578125 L 2.359375 -21.28125 L 5.28125 -21.28125 L 5.28125 -10.421875 C 5.28125 -9.253906 5.390625 -8.171875 5.609375 -7.171875 C 5.835938 -6.171875 6.195312 -5.300781 6.6875 -4.5625 C 7.175781 -3.820312 7.8125 -3.242188 8.59375 -2.828125 C 9.375 -2.421875 10.328125 -2.21875 11.453125 -2.21875 C 12.472656 -2.21875 13.375 -2.394531 14.15625 -2.75 C 14.9375 -3.113281 15.59375 -3.625 16.125 -4.28125 C 16.65625 -4.945312 17.054688 -5.753906 17.328125 -6.703125 C 17.609375 -7.660156 17.75 -8.738281 17.75 -9.9375 L 19.796875 -9.484375 C 19.796875 -7.296875 19.414062 -5.457031 18.65625 -3.96875 C 17.894531 -2.488281 16.84375 -1.367188 15.5 -0.609375 C 14.164062 0.148438 12.628906 0.53125 10.890625 0.53125 Z M 18.046875 0 L 18.046875 -5.234375 L 17.75 -5.234375 L 17.75 -21.28125 L 20.65625 -21.28125 L 20.65625 0 Z M 18.046875 0 "/></g>
</g>
</g>
<g fill="#3399ff" fillOpacity="1">
<g transform="translate(314.571192, 87.31557)">
    <g><path d="M 3.15625 -25.3125 L 3.15625 -28.5625 L 6.046875 -28.5625 L 6.046875 -25.3125 Z M 3.15625 0 L 3.15625 -21.28125 L 6.046875 -21.28125 L 6.046875 0 Z M 3.15625 0 "/></g>
</g>
</g>
<g fill="#3399ff" fillOpacity="1">
<g transform="translate(323.969078, 87.31557)">
    <g><path d="M 14.34375 0 C 13.144531 0.25 11.960938 0.347656 10.796875 0.296875 C 9.640625 0.242188 8.601562 -0.00390625 7.6875 -0.453125 C 6.78125 -0.898438 6.085938 -1.597656 5.609375 -2.546875 C 5.234375 -3.328125 5.03125 -4.117188 5 -4.921875 C 4.96875 -5.734375 4.953125 -6.660156 4.953125 -7.703125 L 4.953125 -27.1875 L 7.828125 -27.1875 L 7.828125 -7.828125 C 7.828125 -6.929688 7.832031 -6.179688 7.84375 -5.578125 C 7.863281 -4.984375 8 -4.457031 8.25 -4 C 8.726562 -3.113281 9.484375 -2.585938 10.515625 -2.421875 C 11.546875 -2.253906 12.820312 -2.296875 14.34375 -2.546875 Z M 0.390625 -18.796875 L 0.390625 -21.28125 L 14.34375 -21.28125 L 14.34375 -18.796875 Z M 0.390625 -18.796875 "/></g>
</g>
</g>
        </svg>