<?xml version="1.0" encoding="UTF-8" standalone="no"?>
<svg
   width="1640"
   zoomAndPan="magnify"
   viewBox="0 0 1230 180"
   height="240"
   preserveAspectRatio="xMidYMid"
   version="1.0"
   id="svg39"
   sodipodi:docname="Logos-Worklife-Products (8).svg"
   inkscape:version="1.2 (dc2aedaf03, 2022-05-15)"
   xmlns:inkscape="http://www.inkscape.org/namespaces/inkscape"
   xmlns:sodipodi="http://sodipodi.sourceforge.net/DTD/sodipodi-0.dtd"
   xmlns="http://www.w3.org/2000/svg"
   xmlns:svg="http://www.w3.org/2000/svg">
  <sodipodi:namedview
     id="namedview41"
     pagecolor="#ffffff"
     bordercolor="#000000"
     borderopacity="0.25"
     inkscape:showpageshadow="2"
     inkscape:pageopacity="0.0"
     inkscape:pagecheckerboard="0"
     inkscape:deskcolor="#d1d1d1"
     showgrid="false"
     inkscape:zoom="0.628125"
     inkscape:cx="960"
     inkscape:cy="539.70149"
     inkscape:window-width="1920"
     inkscape:window-height="1017"
     inkscape:window-x="1912"
     inkscape:window-y="-8"
     inkscape:window-maximized="1"
     inkscape:current-layer="svg39" />
  <defs
     id="defs11">
    <clipPath
       id="55611853a3">
      <path
         d="m 1223,378 h 106.7891 V 490 H 1223 Z m 0,0"
         clipRule="nonzero"
         id="path2" />
    </clipPath>
    <clipPath
       id="1d0f80eab4">
      <path
         d="m 308,318.70703 h 60 V 380 h -60 z m 0,0"
         clipRule="nonzero"
         id="path5" />
    </clipPath>
    <clipPath
       id="5f1af97d82">
      <path
         d="M 110.28906,331 H 343 V 491 H 110.28906 Z m 0,0"
         clipRule="nonzero"
         id="path8" />
    </clipPath>
  </defs>
  <path
     fill="#3399ff"
     d="m 600.10115,173.94928 c -11.11328,0 -20.94141,-2.49219 -29.49219,-7.48047 -8.54687,-5.12891 -15.3125,-11.96485 -20.30078,-20.51172 -4.98437,-8.69141 -7.47656,-18.37891 -7.47656,-29.0625 0,-10.6875 2.49219,-20.30078 7.47656,-28.85156 4.98828,-8.6875 11.75391,-15.52735 20.30078,-20.51563 8.55078,-5.125 18.37891,-7.6914 29.49219,-7.6914 11.11328,0 20.94141,2.5664 29.48828,7.6914 8.69141,4.98828 15.45703,11.75391 20.30078,20.30469 4.98828,8.54687 7.48047,18.23437 7.48047,29.0625 0,10.68359 -2.49219,20.37109 -7.48047,29.0625 -4.84375,8.54687 -11.60937,15.38281 -20.30078,20.51172 -8.54687,4.98828 -18.375,7.48047 -29.48828,7.48047 z m 0,-16.88282 c 7.55078,0 14.10156,-1.78125 19.66016,-5.33984 5.55468,-3.5625 9.89843,-8.33594 13.03515,-14.32031 3.13282,-6.125 4.69922,-12.96485 4.69922,-20.51172 0,-7.55078 -1.5664,-14.32031 -4.69922,-20.30078 -3.13672,-6.12891 -7.48047,-10.97266 -13.03515,-14.53516 -5.5586,-3.55859 -12.10938,-5.33984 -19.66016,-5.33984 -7.41016,0 -13.96094,1.78125 -19.66016,5.33984 -5.55859,3.5625 -9.90234,8.40625 -13.03515,14.53516 -3.13672,5.98047 -4.70313,12.75 -4.70313,20.30078 0,7.54687 1.56641,14.38672 4.70313,20.51172 3.13281,5.98437 7.47656,10.75781 13.03515,14.32031 5.69922,3.55859 12.25,5.33984 19.66016,5.33984 z m 0,0"
     fillOpacity="1"
     fillRule="nonzero"
     id="path13" />
  <path
     fill="#3399ff"
     d="m 677.49959,171.38678 v -78 c 0,-9.6875 2.70703,-17.23828 8.12109,-22.65235 5.55469,-5.55468 13.17578,-8.33593 22.86328,-8.33593 h 22.44141 v 16.88281 h -18.80859 c -4.69922,0 -8.40235,1.35547 -11.10938,4.0625 -2.56641,2.70703 -3.84766,6.48047 -3.84766,11.32422 v 76.71875 z m 0,0"
     fillOpacity="1"
     fillRule="nonzero"
     id="path15" />
  <path
     fill="#3399ff"
     d="m 753.89021,173.23443 v -156 h 19.66016 v 92.7461 h 29.91797 l 28.63281,-45.73438 h 21.79688 l -30.98438,48.72266 c 10.25781,2.99219 18.23438,8.62109 23.93359,16.88281 5.83985,8.12109 8.76172,17.59375 8.76172,28.42188 v 14.96093 h -19.875 V 158.2735 c 0,-5.98438 -1.35156,-11.32422 -4.05859,-16.02735 -2.56641,-4.69922 -6.19922,-8.40625 -10.89844,-11.11328 -4.70312,-2.84766 -10.11719,-4.27344 -16.24219,-4.27344 h -30.98437 v 46.375 z m 0,0"
     fillOpacity="1"
     fillRule="nonzero"
     id="path17" />
  <path
     fill="#3399ff"
     d="M 371.60506,170.89459 317.18318,14.93365 h 19.2461 l 47.5625,140.47266 h -7.74219 L 426.24568,14.93365 h 14.60156 l 47.33985,140.47266 h -7.07813 L 529.99959,14.93365 h 18.13672 L 493.27693,170.89459 H 476.90584 L 430.89021,35.72662 h 4.64844 l -48.00781,135.16797 z m 0,0"
     fillOpacity="1"
     fillRule="nonzero"
     id="path19" />
  <g
     clip-path="url(#55611853a3)"
     id="g23"
     transform="translate(-106.57463,-316.41791)">
    <path
       fill="#33cc66"
       d="m 1285.2227,489.65234 c -12.3946,0 -23.2188,-2.35156 -32.4766,-7.05468 -9.1172,-4.84375 -16.2383,-11.39454 -21.3711,-19.66016 -4.9883,-8.26172 -7.4805,-17.52344 -7.4805,-27.78125 0,-11.53906 2.3555,-21.58203 7.0508,-30.12891 4.6992,-8.54687 11.1133,-15.17187 19.2383,-19.875 8.1133,-4.69922 17.3008,-7.05078 27.5625,-7.05078 12.2539,0 22.1562,2.5625 29.7031,7.69141 7.6953,5.1289 13.3203,12.03906 16.8828,20.73047 3.5664,8.54687 5.3438,18.09375 5.3438,28.63281 0,1.42578 -0.07,3.13672 -0.2188,5.12891 -0.1367,1.85546 -0.3476,3.27734 -0.6367,4.27343 h -73.7226 c 1.1367,4.41797 3.0625,8.1211 5.7617,11.11328 2.8515,2.99219 6.3476,5.27344 10.4765,6.83985 4.2735,1.42578 9.0508,2.13672 14.3125,2.13672 H 1316 v 25.0039 z m -30.3399,-64.75 h 45.5156 c -0.289,-2.70703 -0.7851,-5.20312 -1.5,-7.48047 -0.707,-2.42187 -1.707,-4.55859 -2.9882,-6.41015 -1.2813,-1.85156 -2.7735,-3.42188 -4.4883,-4.70313 -1.711,-1.28125 -3.7071,-2.27734 -5.9805,-2.99218 -2.2851,-0.71094 -4.7773,-1.06641 -7.4805,-1.06641 -3.5625,0 -6.7695,0.64062 -9.6132,1.92187 -2.711,1.28125 -4.9922,2.99219 -6.8399,5.12891 -1.8515,2.13672 -3.3476,4.55859 -4.4922,7.26563 -0.9922,2.70703 -1.707,5.48437 -2.1328,8.33593 z m 0,0"
       fillOpacity="1"
       fillRule="nonzero"
       id="path21" />
  </g>
  <path
     fill="#33cc66"
     d="M 1050.0309,173.23443 V 89.25006 h -19.0274 V 64.24615 h 19.0274 V 48.21881 c 0,-9.6875 2.7031,-17.23828 8.1133,-22.64844 5.5625,-5.55859 13.1796,-8.33594 22.8632,-8.33594 h 30.9883 v 25.00391 h -25.8515 c -1.8594,0 -3.4961,0.64062 -4.918,1.92187 -1.2813,1.28125 -1.9258,2.92188 -1.9258,4.91407 v 15.17187 h 27.9961 v 25.00391 h -27.9961 v 83.98437 z m 0,0"
     fillOpacity="1"
     fillRule="nonzero"
     id="path25" />
  <path
     fill="#33cc66"
     d="M 985.79257,173.23443 V 64.24615 h 29.48833 V 173.23443 Z M 1000.5309,51.211 c -4.98443,0 -9.32423,-1.78125 -13.03133,-5.33985 -3.5625,-3.70703 -5.3437,-8.05078 -5.3437,-13.03515 0,-4.98829 1.7812,-9.26172 5.3437,-12.82422 3.7071,-3.70313 8.0469,-5.55469 13.03133,-5.55469 4.9843,0 9.2656,1.85156 12.8203,5.55469 3.707,3.5625 5.5625,7.83593 5.5625,12.82422 0,4.98437 -1.8555,9.32812 -5.5625,13.03515 -3.5547,3.5586 -7.836,5.33985 -12.8203,5.33985 z m 0,0"
     fillOpacity="1"
     fillRule="nonzero"
     id="path27" />
  <path
     fill="#33cc66"
     d="m 928.15197,173.23443 c -8.8282,0 -16.5977,-1.99609 -23.2891,-5.98437 -6.6953,-4.13281 -11.89844,-9.54688 -15.60156,-16.24219 -3.70703,-6.83984 -5.55469,-14.31641 -5.55469,-22.4375 V 23.64459 h 30.55855 v 108.55859 c 0,3.84766 1.3516,7.19532 4.0625,10.04297 2.7032,2.70703 5.9805,4.0586 9.8243,4.0586 h 39.5351 v 26.92968 z m 0,0"
     fillOpacity="1"
     fillRule="nonzero"
     id="path29" />
  <g
     clip-path="url(#1d0f80eab4)"
     id="g33"
     transform="translate(-106.57463,-316.41791)">
    <path
       fill="#33cc66"
       d="m 346.21875,379.56641 21.07031,-60.85938 -50.94922,12.35938 -0.27343,0.0664 -4.30469,12.44922 -3.07813,8.88672 z m 0,0"
       fillOpacity="1"
       fillRule="evenodd"
       id="path31" />
  </g>
  <g
     clip-path="url(#5f1af97d82)"
     id="g37"
     transform="translate(-106.57463,-316.41791)">
    <path
       fill="#3399ff"
       d="m 305.32031,362.00781 36.8086,26.57422 -36.85157,101.88281 h -38.5 l -29.86718,-85.45703 -30.69922,85.45703 H 167.48437 L 110.29688,331.73047 h 49.98437 l 28.39453,89.75781 32.39453,-89.75781 h 34.44922 l 28.92578,90.22656 z m 0,0"
       fillOpacity="1"
       fillRule="evenodd"
       id="path35" />
  </g>
</svg>
